<svg width="24px" height="24px" viewBox="0 0 24 24" fill="#cccccc" xmlns="http://www.w3.org/2000/svg">
<path d="M12 22.66C11.5994 22.6582 11.2041 22.5675 10.8427 22.3946C10.4813 22.2217 10.1628 21.9708 9.91 21.66L9.03 20.66C8.90387 20.5128 8.74499 20.3972 8.56611 20.3226C8.38724 20.2479 8.19334 20.2162 8 20.23L6.65 20.35C6.25265 20.3835 5.85276 20.3302 5.47805 20.1938C5.10335 20.0574 4.76279 19.8411 4.48 19.56C4.19978 19.2762 3.98345 18.9357 3.84548 18.5615C3.70751 18.1872 3.65109 17.7878 3.68 17.39L3.79 16C3.79569 15.8111 3.75914 15.6233 3.68302 15.4503C3.6069 15.2773 3.49313 15.1234 3.35 15L2.35 14.13C2.04487 13.8728 1.79961 13.5521 1.63136 13.1902C1.46312 12.8283 1.37595 12.4341 1.37595 12.035C1.37595 11.6359 1.46312 11.2417 1.63136 10.8798C1.79961 10.518 2.04487 10.1972 2.35 9.94001L3.35 9.06001C3.4997 8.92981 3.61597 8.76559 3.68905 8.58114C3.76214 8.39669 3.7899 8.1974 3.77 8.00001L3.65 6.65001C3.61129 6.24642 3.6623 5.83926 3.79937 5.45769C3.93645 5.07613 4.1562 4.72959 4.44289 4.4429C4.72958 4.15621 5.07612 3.93646 5.45768 3.79938C5.83925 3.6623 6.24641 3.6113 6.65 3.65001L8 3.79001C8.18892 3.7957 8.37673 3.75915 8.54973 3.68303C8.72273 3.60691 8.87656 3.49314 9 3.35001L9.87 2.35001C10.1233 2.03973 10.4419 1.78921 10.8032 1.61635C11.1645 1.44348 11.5595 1.35254 11.96 1.35001C12.3606 1.35184 12.7559 1.44248 13.1173 1.61539C13.4786 1.78831 13.7972 2.0392 14.05 2.35001L14.93 3.35001C15.0623 3.49986 15.2283 3.6161 15.4143 3.68913C15.6004 3.76216 15.8011 3.78988 16 3.77001L17.35 3.65001C17.7536 3.6113 18.1607 3.6623 18.5423 3.79938C18.9239 3.93646 19.2704 4.15621 19.5571 4.4429C19.8438 4.72959 20.0635 5.07613 20.2006 5.45769C20.3377 5.83926 20.3887 6.24642 20.35 6.65001L20.21 8.00001C20.2043 8.18893 20.2409 8.37674 20.317 8.54974C20.3931 8.72274 20.5069 8.87657 20.65 9.00001L21.65 9.87001C21.9551 10.1272 22.2004 10.448 22.3686 10.8098C22.5369 11.1717 22.6241 11.5659 22.6241 11.965C22.6241 12.3641 22.5369 12.7583 22.3686 13.1202C22.2004 13.4821 21.9551 13.8028 21.65 14.06L20.65 14.94C20.5003 15.0702 20.384 15.2344 20.3109 15.4189C20.2379 15.6033 20.2101 15.8026 20.23 16L20.35 17.35C20.3887 17.7536 20.3377 18.1608 20.2006 18.5423C20.0635 18.9239 19.8438 19.2704 19.5571 19.5571C19.2704 19.8438 18.9239 20.0636 18.5423 20.2006C18.1607 20.3377 17.7536 20.3887 17.35 20.35L16 20.21C15.8116 20.2077 15.6248 20.2458 15.4523 20.3217C15.2799 20.3976 15.1256 20.5095 15 20.65L14.13 21.65C13.8767 21.9603 13.5581 22.2108 13.1968 22.3837C12.8355 22.5565 12.4405 22.6475 12.04 22.65L12 22.66ZM8.1 18.73C8.50014 18.7346 8.89447 18.8264 9.25545 18.9992C9.61643 19.1719 9.93537 19.4213 10.19 19.73L11.07 20.73C11.1867 20.8682 11.3322 20.9792 11.4963 21.0552C11.6604 21.1312 11.8391 21.1704 12.02 21.17C12.2104 21.1799 12.4005 21.1442 12.5744 21.0659C12.7483 20.9877 12.9011 20.8691 13.02 20.72L13.89 19.72C14.1675 19.3787 14.5234 19.1096 14.9274 18.9355C15.3313 18.7614 15.7713 18.6875 16.21 18.72L17.56 18.82C17.7407 18.8354 17.9226 18.811 18.0929 18.7484C18.2631 18.6859 18.4176 18.5868 18.5454 18.458C18.6731 18.3293 18.7711 18.1741 18.8324 18.0034C18.8937 17.8327 18.9167 17.6506 18.9 17.47L18.79 16.13C18.7574 15.6913 18.8314 15.2513 19.0055 14.8474C19.1796 14.4434 19.4487 14.0875 19.79 13.81L20.79 12.93C20.9282 12.8133 21.0392 12.6678 21.1152 12.5037C21.1912 12.3396 21.2304 12.1609 21.23 11.98C21.2398 11.7896 21.2042 11.5995 21.1259 11.4256C21.0476 11.2517 20.9291 11.0989 20.78 10.98L19.78 10.11C19.44 9.83137 19.1718 9.4753 18.9978 9.07163C18.8238 8.66797 18.7491 8.22848 18.78 7.79001L18.88 6.44001C18.8954 6.25928 18.871 6.07738 18.8084 5.90713C18.7459 5.73688 18.6468 5.58242 18.518 5.45464C18.3893 5.32687 18.2341 5.22889 18.0634 5.16761C17.8927 5.10634 17.7106 5.08326 17.53 5.10001L16.19 5.21001C15.7513 5.24256 15.3113 5.16863 14.9074 4.99452C14.5034 4.8204 14.1475 4.55126 13.87 4.21001L12.99 3.21001C12.8624 3.07921 12.7075 2.97821 12.5364 2.91425C12.3652 2.85029 12.1821 2.82493 12 2.84001C11.8095 2.83016 11.6195 2.86584 11.4456 2.9441C11.2717 3.02236 11.1189 3.14094 11 3.29001L10.13 4.29001C9.84975 4.62807 9.49341 4.89495 9.09015 5.06876C8.6869 5.24258 8.2482 5.3184 7.81 5.29001L6.46 5.19001C6.277 5.17142 6.09217 5.19412 5.91911 5.25642C5.74604 5.31872 5.58916 5.41905 5.46 5.55001C5.3302 5.68 5.23064 5.837 5.16842 6.00984C5.1062 6.18268 5.08284 6.36711 5.1 6.55001L5.21 7.89001C5.24255 8.32867 5.16862 8.7687 4.99451 9.17264C4.82039 9.57658 4.55125 9.93247 4.21 10.21L3.21 11.09C3.07181 11.2067 2.96083 11.3522 2.88482 11.5163C2.80881 11.6804 2.76962 11.8591 2.77 12.04C2.76015 12.2305 2.79583 12.4205 2.87409 12.5944C2.95235 12.7683 3.07093 12.9211 3.22 13.04L4.22 13.91C4.55996 14.1886 4.82818 14.5447 5.00218 14.9484C5.17617 15.352 5.25086 15.7915 5.22 16.23L5.12 17.58C5.10213 17.763 5.12516 17.9476 5.18743 18.1205C5.24969 18.2935 5.34962 18.4504 5.48 18.58C5.60873 18.7116 5.76556 18.8123 5.93873 18.8746C6.11191 18.937 6.29695 18.9593 6.48 18.94L7.82 18.83L8.1 18.73Z" fill="#cccccc"/>
<path d="M12 15.75C11.0054 15.75 10.0516 15.3549 9.34835 14.6517C8.64509 13.9484 8.25 12.9946 8.25 12C8.25 11.0054 8.64509 10.0516 9.34835 9.34835C10.0516 8.64509 11.0054 8.25 12 8.25C12.9946 8.25 13.9484 8.64509 14.6517 9.34835C15.3549 10.0516 15.75 11.0054 15.75 12C15.75 12.9946 15.3549 13.9484 14.6517 14.6517C13.9484 15.3549 12.9946 15.75 12 15.75ZM12 9.75C11.4033 9.75 10.831 9.98705 10.409 10.409C9.98705 10.831 9.75 11.4033 9.75 12C9.75 12.5967 9.98705 13.169 10.409 13.591C10.831 14.0129 11.4033 14.25 12 14.25C12.5967 14.25 13.169 14.0129 13.591 13.591C14.0129 13.169 14.25 12.5967 14.25 12C14.25 11.4033 14.0129 10.831 13.591 10.409C13.169 9.98705 12.5967 9.75 12 9.75Z" fill="#cccccc"/>
</svg>